<?xml version="1.0" standalone="no"?>
<!DOCTYPE svg PUBLIC "-//W3C//DTD SVG 20010904//EN"
 "http://www.w3.org/TR/2001/REC-SVG-20010904/DTD/svg10.dtd">
<svg version="1.0" xmlns="http://www.w3.org/2000/svg"
 width="600.000000pt" height="525.000000pt" viewBox="0 0 600.000000 525.000000"
 preserveAspectRatio="xMidYMid meet">
<metadata>
Created by potrace 1.13, written by Peter Selinger 2001-2015
</metadata>
<g transform="translate(0.000000,525.000000) scale(0.100000,-0.100000)"
fill="#000000" stroke="none">
<path d="M4222 4638 c40 -157 46 -238 22 -272 -11 -14 -24 -26 -31 -26 -6 0
-13 -3 -15 -7 -3 -9 -87 -51 -168 -84 -30 -13 -66 -29 -78 -35 l-24 -12 29 -5
c15 -3 64 -9 108 -12 142 -12 222 -31 235 -54 11 -21 40 -214 40 -267 0 -96
10 -91 75 43 35 70 76 143 92 162 l30 35 99 -13 c54 -7 135 -21 179 -31 l80
-19 -40 35 c-65 57 -183 173 -200 197 -8 12 -15 31 -15 42 0 20 69 171 127
277 21 39 25 54 14 47 -9 -5 -34 -21 -56 -34 -79 -50 -235 -125 -257 -125 -45
0 -98 52 -268 263 -4 4 6 -43 22 -105z"/>
<path d="M3757 4263 c-21 -26 -58 -69 -83 -95 -41 -44 -48 -48 -92 -47 -26 0
-83 6 -127 13 -44 8 -81 13 -82 11 -2 -1 16 -15 40 -32 23 -17 63 -52 90 -77
44 -44 47 -49 47 -99 0 -28 -7 -90 -14 -137 -12 -71 -12 -81 0 -66 7 11 45 54
85 97 l71 79 52 0 c28 0 82 -7 120 -15 38 -8 71 -13 73 -12 3 4 -78 81 -117
112 -65 51 -71 86 -41 228 10 48 18 87 17 87 -1 0 -18 -21 -39 -47z"/>
<path d="M3070 3921 c0 -4 7 -28 16 -52 27 -75 29 -91 28 -197 l0 -102 30 36
c66 78 113 117 174 144 l62 27 -72 17 c-87 21 -112 33 -183 91 -30 25 -55 41
-55 36z"/>
<path d="M3810 3554 c-376 -19 -693 -100 -1175 -297 -385 -158 -399 -165 -968
-456 -130 -66 -246 -121 -257 -121 -19 0 -20 7 -20 225 l0 225 -155 0 -155 0
0 -575 0 -575 435 0 435 0 0 135 0 135 -280 0 -280 0 0 200 c0 182 2 201 18
206 68 21 274 104 407 164 22 10 114 50 205 90 91 40 203 89 250 110 47 20 96
41 110 45 14 4 48 18 75 30 28 12 84 35 125 50 41 15 93 36 115 45 120 52 448
163 594 201 130 34 365 75 491 86 161 15 664 8 797 -10 195 -27 184 -19 -37
27 -217 46 -523 71 -730 60z"/>
<path d="M2905 3115 c-94 -25 -161 -67 -226 -142 -62 -72 -83 -237 -41 -325
50 -102 155 -168 342 -213 216 -53 270 -79 270 -130 0 -46 -24 -71 -80 -85
-96 -23 -246 10 -362 80 -59 35 -98 44 -98 21 0 -3 -10 -17 -23 -31 -76 -82
-117 -132 -117 -143 0 -18 114 -90 191 -120 95 -38 180 -56 289 -63 334 -21
545 154 509 421 -11 80 -51 138 -133 192 -65 44 -136 69 -291 105 -159 37
-205 62 -205 113 0 38 28 72 68 82 71 18 218 -15 318 -71 26 -14 52 -26 58
-26 6 0 44 46 84 103 l72 102 -22 19 c-43 35 -183 95 -260 111 -94 18 -274 19
-343 0z"/>
<path d="M3732 2558 l3 -573 285 0 c237 1 297 4 355 18 76 19 199 75 230 105
11 10 33 27 48 37 41 26 124 157 146 231 42 134 36 301 -15 412 -13 29 -24 55
-24 58 0 14 -82 107 -127 145 -59 50 -104 73 -202 107 -74 25 -84 26 -389 30
l-312 4 2 -574z m561 288 c151 -35 229 -155 213 -325 -8 -86 -45 -161 -99
-201 -64 -47 -127 -61 -253 -58 l-109 3 -3 298 -2 297 97 0 c54 0 124 -6 156
-14z"/>
<path d="M2368 2920 c-21 -10 -70 -31 -110 -46 -40 -15 -84 -33 -98 -41 -14
-7 -31 -13 -37 -13 -10 0 -13 -91 -13 -420 l0 -420 155 0 155 0 0 480 c0 264
-3 480 -7 480 -5 -1 -25 -9 -45 -20z"/>
<path d="M1687 1518 c-13 -29 -37 -84 -52 -123 -15 -38 -32 -76 -38 -82 -7
-10 -3 -13 17 -13 18 0 30 8 41 30 15 28 19 30 78 30 60 0 63 -1 74 -30 9 -23
18 -30 37 -30 22 0 25 3 18 18 -24 45 -73 159 -74 172 0 3 -9 22 -19 43 -28
53 -51 49 -82 -15z"/>
<path d="M3115 1563 c-60 -16 -95 -67 -95 -139 0 -41 5 -51 40 -86 40 -40 41
-40 101 -36 56 4 65 8 96 42 31 33 34 42 32 91 -2 43 -8 61 -28 84 -37 41 -92
57 -146 44z m105 -63 c15 -15 20 -33 20 -69 0 -42 -4 -53 -26 -70 -15 -12 -41
-21 -59 -21 -18 0 -44 9 -59 21 -22 17 -26 28 -26 70 0 65 23 89 85 89 32 0
51 -6 65 -20z"/>
<path d="M3673 1533 c-9 -21 -24 -56 -34 -78 -10 -22 -29 -66 -43 -97 l-25
-58 25 0 c19 0 29 8 37 30 11 29 14 30 74 30 59 0 63 -2 78 -30 10 -18 23 -30
36 -30 23 0 21 13 -12 87 -11 23 -19 44 -19 47 0 2 -14 34 -30 70 -37 79 -61
87 -87 29z"/>
<path d="M4306 1546 c-74 -37 -87 -147 -26 -209 37 -38 109 -48 163 -22 37 17
77 81 77 121 -1 38 -35 89 -75 111 -47 27 -87 27 -139 -1z m124 -36 c27 -14
43 -79 29 -117 -30 -89 -169 -58 -169 37 0 56 31 90 81 90 22 0 49 -5 59 -10z"/>
<path d="M1072 1434 c3 -125 4 -129 26 -132 20 -3 22 1 22 42 0 44 1 46 29 46
24 0 35 -9 58 -42 20 -31 37 -44 56 -46 l28 -3 -25 40 c-14 22 -26 43 -26 46
0 4 11 21 25 39 30 40 32 75 4 107 -18 21 -30 24 -110 28 l-90 3 3 -128z"/>
<path d="M1350 1430 l0 -130 100 0 c93 0 100 1 100 20 0 17 -8 19 -72 22 l-73
3 -3 33 -3 32 65 0 c62 0 66 1 66 23 0 20 -4 22 -62 22 l-63 0 -3 33 -3 32 75
0 c69 0 76 2 76 20 0 19 -7 20 -100 20 l-100 0 0 -130z"/>
<path d="M1920 1430 l0 -130 96 0 c93 0 95 1 92 23 -3 20 -9 22 -70 25 l-68 3
0 104 0 105 -25 0 -25 0 0 -130z"/>
<path d="M2410 1430 l0 -130 25 0 c25 0 25 1 25 80 0 64 3 80 15 80 8 0 20
-10 26 -22 27 -51 103 -138 120 -138 18 0 19 10 19 130 0 123 -1 130 -20 130
-21 0 -22 -8 -23 -112 0 -21 -5 -38 -11 -38 -13 0 -46 36 -46 49 0 5 -3 11 -8
13 -4 2 -22 22 -40 46 -23 29 -41 42 -58 42 l-24 0 0 -130z"/>
<path d="M2720 1429 c0 -130 0 -130 23 -127 20 3 22 9 25 81 2 42 7 77 12 77
4 0 35 -35 67 -77 37 -48 68 -79 81 -81 22 -3 22 -1 22 127 l0 131 -25 0 c-24
0 -25 -2 -25 -75 0 -60 -3 -75 -15 -75 -8 0 -15 5 -15 10 0 6 -6 18 -12 26
-27 31 -34 40 -61 77 -19 25 -36 37 -53 37 l-24 0 0 -131z"/>
<path d="M3374 1433 c45 -113 54 -128 74 -128 20 0 29 12 54 75 17 41 39 94
49 117 24 55 24 63 -5 63 -20 0 -27 -11 -52 -85 -21 -64 -33 -85 -46 -85 -10
0 -18 6 -18 13 0 6 -12 45 -27 85 -25 64 -30 72 -54 72 l-27 0 52 -127z"/>
<path d="M3850 1540 c0 -17 7 -20 40 -20 l40 0 0 -110 0 -110 25 0 25 0 0 110
0 110 40 0 c33 0 40 3 40 20 0 19 -7 20 -105 20 -98 0 -105 -1 -105 -20z"/>
<path d="M4580 1430 l0 -130 25 0 c25 0 25 1 25 80 0 44 4 80 9 80 10 0 71
-67 71 -78 0 -15 68 -82 83 -82 15 0 17 16 17 131 0 130 0 130 -22 127 -21 -3
-23 -10 -28 -78 -6 -85 3 -88 -85 23 -33 41 -53 57 -71 57 l-24 0 0 -130z"/>
<path d="M414 1087 c-2 -7 -3 -67 -2 -133 l3 -119 90 0 c86 0 90 1 93 23 3 21
0 22 -67 22 l-71 0 0 110 c0 104 -1 110 -20 110 -11 0 -23 -6 -26 -13z"/>
<path d="M787 1093 c-4 -3 -7 -64 -7 -135 l0 -128 25 0 c25 0 25 1 25 85 0 69
3 85 15 85 8 0 15 -5 15 -10 0 -6 12 -28 26 -50 l26 -39 32 46 c49 72 56 68
56 -32 0 -84 1 -86 23 -83 22 3 22 6 22 133 l0 130 -25 3 c-21 2 -31 -6 -60
-52 -19 -31 -40 -56 -45 -56 -6 0 -25 25 -43 55 -25 41 -39 55 -56 55 -12 0
-26 -3 -29 -7z"/>
<path d="M1232 1078 c2 -19 10 -24 46 -26 l42 -3 0 -110 c0 -109 0 -110 23
-107 21 3 22 8 25 111 l3 107 39 0 c36 0 40 3 40 25 l0 25 -111 0 c-109 0
-110 0 -107 -22z"/>
<path d="M1508 970 c-2 -101 0 -131 10 -135 8 -3 49 -5 93 -5 78 0 79 0 79 25
0 24 -2 25 -70 25 l-70 0 0 110 c0 102 -1 110 -19 110 -19 0 -20 -9 -23 -130z"/>
<path d="M1750 965 l0 -135 95 0 c95 0 95 0 95 25 0 24 -2 25 -74 25 l-74 0 1
33 2 32 66 3 c61 3 66 5 62 22 -5 17 -14 20 -67 20 -61 0 -61 0 -62 30 l-2 30
74 0 c72 0 74 1 74 25 0 25 0 25 -95 25 l-95 0 0 -135z"/>
<path d="M2030 1079 c-51 -43 -31 -106 41 -129 55 -17 69 -28 69 -51 0 -26
-40 -34 -82 -16 -28 12 -37 12 -52 1 -17 -12 -16 -14 8 -29 41 -27 105 -30
144 -6 27 18 32 27 32 59 0 34 -4 41 -39 60 -21 12 -47 22 -58 22 -24 0 -43
19 -43 42 0 23 44 34 76 19 33 -15 41 -14 48 4 7 19 -42 45 -86 45 -18 -1 -44
-10 -58 -21z"/>
<path d="M2269 1071 c-19 -20 -27 -36 -23 -48 15 -46 29 -62 58 -69 51 -11 86
-33 86 -54 0 -29 -44 -37 -88 -16 -32 16 -37 16 -51 2 -18 -19 -10 -29 38 -45
68 -22 122 -7 142 41 16 40 1 71 -48 92 -72 32 -88 42 -91 58 -4 23 43 34 81
20 23 -9 34 -9 44 0 11 9 8 14 -17 29 -46 29 -96 25 -131 -10z"/>
<path d="M2681 1083 c-104 -52 -90 -214 21 -244 54 -14 99 -5 136 29 33 30 56
88 46 118 -18 55 -41 84 -76 99 -49 19 -84 19 -127 -2z m117 -43 c29 -18 32
-25 32 -66 0 -59 -12 -80 -56 -94 -29 -10 -41 -10 -63 1 -39 21 -50 40 -51 85
0 80 67 117 138 74z"/>
<path d="M2952 969 c3 -126 4 -134 23 -134 16 0 21 8 23 43 l3 42 48 0 c66 0
101 30 101 86 0 63 -31 86 -125 92 l-76 5 3 -134z"/>
<path d="M3215 1088 c-3 -8 -4 -68 -3 -134 3 -111 4 -119 23 -119 16 0 21 8
23 43 l3 42 48 0 c49 0 91 25 104 62 9 26 -11 82 -35 97 -33 21 -156 28 -163
9z"/>
<path d="M3550 1092 c-39 -18 -69 -46 -79 -74 -29 -84 2 -151 83 -178 72 -23
143 9 172 78 15 37 11 112 -6 112 -4 0 -10 8 -12 18 -10 37 -112 65 -158 44z
m114 -62 c30 -30 29 -102 -2 -132 -33 -34 -97 -31 -128 5 -35 41 -32 90 6 129
27 26 36 30 67 25 20 -4 46 -16 57 -27z"/>
<path d="M3805 1088 c-3 -8 -4 -68 -3 -134 3 -111 4 -119 23 -119 16 0 21 8
23 43 3 39 5 42 32 42 21 0 33 -8 47 -30 9 -16 21 -30 25 -30 4 0 8 -6 8 -13
0 -7 13 -13 30 -13 27 -2 29 0 18 20 -6 11 -20 32 -32 44 l-21 24 28 22 c40
32 46 84 15 121 -22 26 -32 29 -106 33 -65 4 -83 2 -87 -10z"/>
<path d="M4064 1086 c-10 -25 5 -36 47 -36 l39 0 0 -111 c0 -109 0 -110 23
-107 21 3 22 8 25 111 l3 107 40 0 c36 0 40 2 37 23 -3 21 -8 22 -106 25 -83
2 -103 0 -108 -12z"/>
<path d="M4334 1085 c-3 -8 -4 -55 -3 -104 4 -78 7 -93 28 -115 48 -51 140
-44 179 14 19 28 22 46 22 126 0 94 0 94 -25 94 -25 0 -25 -1 -25 -90 0 -49 0
-93 1 -96 1 -14 -39 -33 -72 -34 -48 0 -59 26 -59 135 0 79 -1 85 -20 85 -11
0 -23 -7 -26 -15z"/>
<path d="M4634 1087 c-2 -7 -3 -67 -2 -133 3 -111 4 -119 23 -119 18 0 20 8
23 78 2 52 7 77 15 77 7 -1 38 -37 70 -80 38 -52 66 -80 78 -80 18 0 19 9 19
136 0 135 0 135 -22 132 -21 -3 -23 -10 -28 -80 -3 -50 -9 -75 -15 -70 -6 4
-35 40 -65 80 -53 69 -84 89 -96 59z"/>
<path d="M5057 1093 c-4 -3 -7 -15 -7 -25 0 -14 8 -18 40 -18 l39 0 3 -107 c3
-103 4 -108 26 -111 22 -3 22 -2 22 107 l0 111 39 0 c38 0 59 19 45 41 -6 10
-197 13 -207 2z"/>
<path d="M5306 1088 c5 -7 27 -43 51 -80 38 -58 43 -73 43 -123 0 -53 1 -56
23 -53 19 3 23 10 27 63 4 50 12 71 48 122 48 70 52 86 20 81 -14 -2 -35 -22
-55 -53 -18 -27 -37 -51 -41 -53 -5 -1 -17 14 -28 35 -10 20 -23 45 -29 55 -6
11 -21 18 -38 18 -20 0 -26 -4 -21 -12z"/>
</g>
</svg>
